#!OML:ASF H:\GeneralSubjects\Female5\Project 1\Capture day 1\Session 1\Female5.ASF
:FULLY-SPECIFIED
:DEGREES
406
root -22.3913 15.9577 5.83432 -171.465 -31.2266 -171.2
lowerback 6.41747 2.0504 4.97928
upperback -9.12649 3.05624 0.555859
thorax -13.3494 0.801304 -2.665
lowerneck -13.4193 6.23053 10.0073
upperneck 32.9948 5.93225 -3.99153
head 13.9522 2.66184 -2.54474
rclavicle 4.00054e-014 -1.35174e-014
rhumerus -44.9145 25.232 -94.1488
rradius 33.139
rwrist -11.7811
rhand -17.9323 -15.3938
rfingers 7.12502
rthumb 8.33569 -45.2093
lclavicle 4.00054e-014 -1.35174e-014
lhumerus -48.7707 -33.5674 108.366
lradius 44.1
lwrist -1.89003
lhand -24.9123 31.9767
lfingers 7.12502
lthumb 1.59623 61.9505
rfemur 5.92036 13.5524 38.756
rtibia -4.93042
rfoot -24.8365 -11.5687
rtoes -10.5832
lfemur -38.383 -13.4605 -4.8866
ltibia 24.3536
lfoot -2.61779 3.00265
ltoes -71.0927
407
root -22.252 15.9073 5.88257 -172.127 -33.395 -169.314
lowerback 6.09269 1.78836 6.07198
upperback -9.3348 2.87516 1.5741
thorax -13.4264 0.638236 -2.10511
lowerneck -13.7115 6.09035 9.43564
upperneck 33.3194 6.03602 -4.48675
head 14.156 2.56336 -2.6359
rclavicle -2.4289e-014 4.01545e-014
rhumerus -44.7767 26.2116 -93.1166
rradius 33.4732
rwrist -12.5913
rhand -18.3577 -15.8345
rfingers 7.12502
rthumb 7.92506 -45.666
lclavicle -2.4289e-014 4.01545e-014
lhumerus -49.3385 -33.2563 109.67
lradius 44.9865
lwrist -2.61835
lhand -25.4741 32.0971
lfingers 7.12502
lthumb 1.05364 62.0742
rfemur 7.00856 17.5137 41.8607
rtibia -8.10932
rfoot -27.0499 -17.0919
rtoes -8.07577
lfemur -40.9225 -10.2926 -5.40941
ltibia 26.164
lfoot -3.23225 7.44909
ltoes -70.5896
408
root -22.1157 15.8476 5.93656 -173.034 -35.3304 -167.392
lowerback 6.0366 1.56931 7.13521
upperback -9.56305 2.75477 2.58222
thorax -13.6998 0.492235 -1.55057
lowerneck -13.8367 5.98878 8.85082
upperneck 33.5977 6.18663 -4.90459
head 14.3065 2.48943 -2.68905
rclavicle -8.03898e-014 -3.55825e-014
rhumerus -44.4595 27.144 -91.91
rradius 33.5824
rwrist -13.3432
rhand -19.0725 -16.6706
rfingers 7.12502
rthumb 7.2352 -46.5269
lclavicle -8.03898e-014 -3.55825e-014
lhumerus -49.905 -32.7623 110.786
lradius 45.7322
lwrist -3.35068
lhand -26.0646 32.189
lfingers 7.12502
lthumb 0.483306 62.1682
rfemur 7.51127 15.5914 43.9288
rtibia -10.9094
rfoot -26.4464 -16.9051
rtoes -5.32433
lfemur -42.9659 -7.60786 -6.03626
ltibia 27.3126
lfoot -3.7062 11.8588
ltoes -69.9649
409
root -21.9843 15.7801 5.99294 -174.067 -36.9272 -165.695
lowerback 6.25762 1.55915 8.53139
upperback -9.78137 2.95877 3.074
thorax -14.0788 0.432494 -1.80471
lowerneck -13.9677 5.7591 8.40864
upperneck 33.8827 5.98288 -4.96205
head 14.4258 2.33079 -2.67837
rclavicle 2.70968e-014 1.8487e-014
rhumerus -43.7863 26.9242 -90.6193
rradius 33.2648
rwrist -13.7493
rhand -20.0736 -17.6628
rfingers 7.12502
rthumb 6.26874 -47.55
lclavicle 2.70968e-014 1.8487e-014
lhumerus -50.8169 -33.0246 111.718
lradius 46.4043
lwrist -3.75053
lhand -26.6325 32.3775
lfingers 7.12502
lthumb -0.0651687 62.3572
rfemur 7.66083 13.821 45.4166
rtibia -12.7912
rfoot -25.9395 -16.2095
rtoes -2.26849
lfemur -44.4271 -5.42955 -6.75879
ltibia 27.8704
lfoot -5.75703 15.0165
ltoes -67.2052
410
root -21.8604 15.7081 6.04661 -175.082 -38.0727 -164.456
lowerback 6.70498 1.60856 9.46535
upperback -9.93808 3.22673 3.45725
thorax -14.5307 0.445298 -1.93914
lowerneck -14.036 5.59374 8.08153
upperneck 34.1857 5.83722 -5.01026
head 14.5525 2.21123 -2.676
rclavicle 1.00492e-013 2.30466e-014
rhumerus -42.8357 26.4947 -89.2159
rradius 32.5286
rwrist -13.9716
rhand -21.3176 -18.6941
rfingers 7.12502
rthumb 5.06766 -48.6135
lclavicle 1.00492e-013 2.30466e-014
lhumerus -51.6318 -33.0475 112.343
lradius 46.8531
lwrist -3.84343
lhand -27.1544 32.5923
lfingers 7.12502
lthumb -0.56917 62.5712
rfemur 7.62582 12.3013 46.2371
rtibia -13.8192
rfoot -25.505 -15.1032
rtoes 0.894329
lfemur -45.2397 -3.66484 -7.5534
ltibia 27.9658
lfoot -7.93255 16.9883
ltoes -64.1587
411
root -21.746 15.6371 6.09261 -175.942 -38.7089 -163.804
lowerback 7.28246 1.72969 9.82873
upperback -10.0005 3.54773 3.72848
thorax -14.9555 0.547641 -1.90345
lowerneck -14.0766 5.50749 7.88553
upperneck 34.5089 5.76363 -5.04395
head 14.6968 2.14022 -2.67955
rclavicle -1.60208e-014 2.45499e-014
rhumerus -41.5502 25.757 -87.7067
rradius 31.3221
rwrist -13.9609
rhand -22.7248 -19.6153
rfingers 7.12502
rthumb 3.7089 -49.5628
lclavicle -1.60208e-014 2.45499e-014
lhumerus -52.2515 -32.7971 112.601
lradius 46.9689
lwrist -3.53377
lhand -27.7139 32.821
lfingers 7.12502
lthumb -1.10961 62.7978
rfemur 7.55063 11.1005 46.4312
rtibia -14.1362
rfoot -25.0863 -13.7935
rtoes 3.75025
lfemur -45.4637 -2.08415 -8.40996
ltibia 27.8262
lfoot -9.33112 17.922
ltoes -61.8711
412
root -21.6421 15.5735 6.12699 -176.608 -38.8553 -163.678
lowerback 7.86164 1.92825 9.69391
upperback -9.9555 3.90848 3.89627
thorax -15.2562 0.733299 -1.72825
lowerneck -14.0496 5.51258 7.8692
upperneck 34.804 5.78653 -5.10842
head 14.8331 2.1306 -2.71105
rclavicle 1.75738e-014 2.56432e-014
rhumerus -39.9264 24.5743 -86.1253
rradius 29.6625
rwrist -13.6974
rhand -24.2371 -20.3907
rfingers 7.12502
rthumb 2.24837 -50.3586
lclavicle 1.75738e-014 2.56432e-014
lhumerus -52.5779 -32.2457 112.415
lradius 46.6446
lwrist -2.68255
lhand -28.2851 32.9041
lfingers 7.12502
lthumb -1.66124 62.8774
rfemur 7.57 10.2631 46.2153
rtibia -14.0036
rfoot -24.643 -12.5179
rtoes 6.07175
lfemur -45.241 -0.438448 -9.27213
ltibia 27.6546
lfoot -9.83068 18.0747
ltoes -60.8291
413
root -21.544 15.5223 6.15021 -177.093 -38.6913 -163.867
lowerback 8.32887 2.17098 9.23174
upperback -9.8393 4.26054 3.9979
thorax -15.4108 0.96054 -1.4514
lowerneck -13.9731 5.60554 7.96587
upperneck 35.1035 5.87892 -5.09515
head 14.9709 2.1762 -2.71847
rclavicle -2.29224e-014 6.2816e-014
rhumerus -38.048 22.852 -84.5116
rradius 27.6421
rwrist -13.2394
rhand -25.8042 -21.0655
rfingers 7.12502
rthumb 0.734847 -51.044
lclavicle -2.29224e-014 6.2816e-014
lhumerus -52.5498 -31.3599 111.747
lradius 45.7935
lwrist -1.331
lhand -28.777 32.8013
lfingers 7.12502
lthumb -2.13635 62.7703
rfemur 7.68002 9.71164 45.8366
rtibia -13.7206
rfoot -24.1023 -11.4849
rtoes 7.60621
lfemur -44.8774 1.36693 -10.0486
ltibia 27.6355
lfoot -9.66879 17.6667
ltoes -60.7227
414
root -21.4498 15.4881 6.16355 -177.478 -38.384 -164.131
lowerback 8.62675 2.42327 8.66398
upperback -9.69205 4.57735 4.06211
thorax -15.4302 1.18842 -1.15004
lowerneck -13.8587 5.76799 8.11229
upperneck 35.4522 5.99229 -4.90791
head 15.1233 2.25944 -2.65915
rclavicle 1.13928e-013 4.73108e-014
rhumerus -36.0755 20.5495 -82.9354
rradius 25.4482
rwrist -12.6621
rhand -27.2974 -21.8417
rfingers 7.12502
rthumb -0.707313 -51.8203
lclavicle 1.13928e-013 4.73108e-014
lhumerus -52.1511 -30.1267 110.577
lradius 44.3687
lwrist 0.358397
lhand -29.0098 32.5749
lfingers 7.12502
lthumb -2.36115 62.5415
rfemur 7.82581 9.32867 45.5257
rtibia -13.4339
rfoot -23.451 -10.7686
rtoes 8.31782
lfemur -44.5154 3.24936 -10.6275
ltibia 27.7323
lfoot -9.23041 16.9436
ltoes -61.0278
415
root -21.358 15.4719 6.16989 -177.783 -38.1003 -164.345
lowerback 8.74127 2.64535 8.13763
upperback -9.56902 4.82595 4.08562
thorax -15.3674 1.37819 -0.896283
lowerneck -13.7223 5.97318 8.27301
upperneck 35.9054 6.06647 -4.48848
head 15.312 2.35543 -2.51329
rclavicle 2.43635e-014 4.53229e-014
rhumerus -34.2501 17.7969 -81.5349
rradius 23.3232
rwrist -12.1764
rhand -28.6876 -22.7925
rfingers 7.12502
rthumb -2.05004 -52.7624
lclavicle 2.43635e-014 4.53229e-014
lhumerus -51.4131 -28.5312 108.902
lradius 42.3614
lwrist 2.09207
lhand -28.8816 32.3651
lfingers 7.12502
lthumb -2.23735 62.3331
rfemur 7.80603 9.01737 45.4388
rtibia -12.9768
rfoot -22.8683 -10.2966
rtoes 8.59174
lfemur -44.2312 4.98799 -11.0033
ltibia 27.8021
lfoot -8.63506 16.2259
ltoes -61.4905
416
root -21.2712 15.4729 6.17133 -177.987 -37.9433 -164.558
lowerback 8.71237 2.81082 7.6786
upperback -9.49913 4.98147 4.03199
thorax -15.2762 1.51043 -0.739614
lowerneck -13.5964 6.19234 8.42566
upperneck 36.5106 6.04198 -3.81081
head 15.5629 2.4374 -2.27539
rclavicle -1.5207e-014 -2.60408e-014
rhumerus -32.8082 14.9675 -80.5008
rradius 21.5245
rwrist -12.1353
rhand -29.8988 -23.8301
rfingers 7.12502
rthumb -3.21969 -53.7856
lclavicle -1.5207e-014 -2.60408e-014
lhumerus -50.4107 -26.5642 106.738
lradius 39.8056
lwrist 3.44166
lhand -28.4167 32.3429
lfingers 7.12502
lthumb -1.78837 62.3152
rfemur 7.61616 8.66824 45.5135
rtibia -12.3738
rfoot -22.428 -9.98187
rtoes 8.59694
lfemur -43.8744 6.25302 -11.2571
ltibia 27.5327
lfoot -8.17089 15.8122
ltoes -61.735
417
root -21.1932 15.4887 6.16909 -178.054 -37.9397 -164.879
lowerback 8.59124 2.91781 7.25614
upperback -9.4933 5.0438 3.86467
thorax -15.1974 1.58545 -0.705894
lowerneck -13.4995 6.40436 8.53305
upperneck 37.277 5.88423 -2.8739
head 15.8859 2.48527 -1.94126
rclavicle -6.06293e-015 6.03311e-014
rhumerus -31.9308 12.5692 -80.0094
rradius 20.2817
rwrist -12.8742
rhand -30.8057 -24.7531
rfingers 7.12502
rthumb -4.09547 -54.6935
lclavicle -6.06293e-015 6.03311e-014
lhumerus -49.2337 -24.2022 104.094
lradius 36.7751
lwrist 3.92341
lhand -27.7219 32.6225
lfingers 7.12502
lthumb -1.11733 62.5993
rfemur 7.31125 8.22964 45.6314
rtibia -11.6601
rfoot -22.1825 -9.73903
rtoes 8.51717
lfemur -43.2994 6.84062 -11.4905
ltibia 26.7515
lfoot -7.74588 15.8311
ltoes -61.9105
418
root -21.1275 15.5165 6.16443 -177.975 -38.0502 -165.373
lowerback 8.43733 2.98296 6.8625
upperback -9.5545 5.04084 3.56693
thorax -15.1678 1.61481 -0.817905
lowerneck -13.4279 6.591 8.5813
upperneck 38.166 5.58588 -1.74525
head 16.2708 2.48583 -1.53389
rclavicle 5.5728e-014 4.47266e-015
rhumerus -31.693 11.0641 -80.1771
rradius 19.7207
rwrist -14.5215
rhand -31.285 -25.4265
rfingers 7.12502
rthumb -4.55837 -55.3575
lclavicle 5.5728e-014 4.47266e-015
lhumerus -47.9752 -21.3807 100.945
lradius 33.3976
lwrist 3.12019
lhand -26.9887 33.1753
lfingers 7.12502
lthumb -0.409222 63.1547
rfemur 7.00705 7.73096 45.6884
rtibia -10.9732
rfoot -22.1011 -9.54535
rtoes 8.58823
lfemur -42.4006 6.6523 -11.7185
ltibia 25.3958
lfoot -7.43145 16.3102
ltoes -61.8511
419
root -21.0753 15.5538 6.15958 -177.743 -38.2165 -166.053
lowerback 8.2856 3.02698 6.52543
upperback -9.68186 5.00614 3.13666
thorax -15.2045 1.60949 -1.10183
lowerneck -13.3687 6.73458 8.60234
upperneck 39.0763 5.16818 -0.56073
head 16.6787 2.43761 -1.10915
rclavicle 7.56981e-014 3.89866e-014
rhumerus -32.0451 10.6475 -81.0269
rradius 19.8265
rwrist -16.8638
rhand -31.2364 -25.7633
rfingers 7.12502
rthumb -4.51141 -55.6953
lclavicle 7.56981e-014 3.89866e-014
lhumerus -46.7494 -18.094 97.2819
lradius 29.843
lwrist 0.735857
lhand -26.4822 33.9813
lfingers 7.12502
lthumb 0.079987 63.961
rfemur 6.79784 7.16839 45.5757
rtibia -10.5062
rfoot -22.0327 -9.38865
rtoes 8.72308
lfemur -41.222 5.68058 -11.9112
ltibia 23.5825
lfoot -7.34755 17.2361
ltoes -61.6225
